<svg width="20" height="23" viewBox="0 0 20 23" fill="none" xmlns="http://www.w3.org/2000/svg">
<path d="M0.19873 1.29632C0.206481 0.969666 0.342615 0.658659 0.578563 0.428543C0.814511 0.198426 1.13194 0.0670828 1.46426 0.0620664H1.81579C2.07675 0.0673164 2.33218 0.136984 2.55859 0.264664C2.78499 0.392344 2.97511 0.573936 3.11145 0.792742L16.8615 18.0229V1.23707C16.8615 0.912346 16.9927 0.600922 17.2263 0.371307C17.4599 0.141692 17.7766 0.0126953 18.1069 0.0126953C18.4373 0.0126953 18.754 0.141692 18.9876 0.371307C19.2212 0.600922 19.3524 0.912346 19.3524 1.23707V21.3306C19.3579 21.4834 19.3316 21.6357 19.2753 21.7782C19.2189 21.9207 19.1336 22.0504 19.0246 22.1594C18.9156 22.2685 18.7851 22.3545 18.6412 22.4123C18.4972 22.4702 18.3428 22.4986 18.1873 22.4958H18.0567C17.79 22.4777 17.5313 22.3987 17.3011 22.265C17.0709 22.1313 16.8757 21.9466 16.7309 21.7256L2.66952 4.09066V21.3306C2.66732 21.6489 2.54115 21.9542 2.31696 22.1838C2.09277 22.4134 1.78762 22.5498 1.46426 22.5649C1.1357 22.5597 0.822536 22.4271 0.593015 22.1959C0.363495 21.9647 0.236214 21.6537 0.238907 21.3306V1.29632H0.19873Z" fill="#283645"/>
</svg>
