<svg width="8" height="4" viewBox="0 0 8 4" fill="none" xmlns="http://www.w3.org/2000/svg">
<path d="M6.28702 3.06653C6.53812 3.06653 6.77917 3.06653 7.02023 3.06653C6.80186 2.69867 6.48968 2.39317 6.1145 2.18018C5.73932 1.96719 5.31412 1.85409 4.88088 1.85203C4.4627 1.85174 4.05503 1.72315 3.71474 1.48419C3.37445 1.24524 3.1185 0.907837 2.98259 0.519043C2.25884 0.724339 1.55609 0.995397 0.883423 1.32871H1.07426C1.60702 1.32871 2.11796 1.53677 2.49467 1.90712C2.87139 2.27746 3.08303 2.77976 3.08303 3.30351C3.08801 3.39889 3.08801 3.49447 3.08303 3.58986C4.10898 3.22235 5.19531 3.04491 6.28702 3.06653Z" fill="#D22856"/>
</svg>
