<svg width="18" height="23" viewBox="0 0 18 23" fill="none" xmlns="http://www.w3.org/2000/svg">
<path d="M0.193255 1.42511C0.193164 1.09236 0.325526 0.772792 0.56203 0.534752C0.798535 0.296712 1.1204 0.159106 1.45878 0.151367H8.67027C13.7826 0.151367 17.1473 2.82722 17.1473 7.21127V7.27052C17.1473 12.0693 13.0695 14.5575 8.24843 14.5575H2.75444V21.2916C2.77019 21.4663 2.74878 21.6423 2.69159 21.8084C2.63439 21.9745 2.54265 22.1271 2.4222 22.2565C2.30175 22.3859 2.15523 22.4892 1.99196 22.5599C1.82869 22.6306 1.65224 22.6671 1.47384 22.6671C1.29544 22.6671 1.119 22.6306 0.955733 22.5599C0.792463 22.4892 0.645943 22.3859 0.525494 22.2565C0.405045 22.1271 0.313297 21.9745 0.256098 21.8084C0.1989 21.6423 0.177502 21.4663 0.193255 21.2916V1.42511ZM8.34887 12.2865C12.0952 12.2865 14.556 10.3117 14.556 7.34951V7.29026C14.556 4.11084 12.1354 2.46188 8.52966 2.46188H2.80466V12.247L8.34887 12.2865Z" fill="#283645"/>
</svg>
