<svg width="19" height="24" viewBox="0 0 19 24" fill="none" xmlns="http://www.w3.org/2000/svg">
<path d="M0.740251 2.26707C0.724498 2.09238 0.745903 1.91637 0.803102 1.75025C0.860301 1.58413 0.952049 1.43152 1.0725 1.30215C1.19295 1.17278 1.33947 1.06946 1.50274 0.998783C1.66601 0.928102 1.84245 0.891602 2.02085 0.891602C2.19925 0.891602 2.37568 0.928102 2.53896 0.998783C2.70223 1.06946 2.84875 1.17278 2.96919 1.30215C3.08964 1.43152 3.18139 1.58413 3.23859 1.75025C3.29579 1.91637 3.31719 2.09238 3.30144 2.26707V14.4417L16.1978 1.43766C16.4623 1.16858 16.8218 1.00954 17.2021 0.993329C17.5309 1.00593 17.8422 1.14195 18.072 1.37338C18.3018 1.60482 18.4326 1.91406 18.4375 2.23745C18.4304 2.40563 18.3895 2.57076 18.3171 2.72329C18.2447 2.87583 18.1423 3.01274 18.0157 3.12611L9.98061 10.9463L18.6485 21.3733C18.875 21.6312 18.9998 21.9606 19 22.3014C18.9961 22.4721 18.9579 22.6404 18.8875 22.7965C18.8171 22.9527 18.7159 23.0936 18.5899 23.2111C18.4638 23.3286 18.3153 23.4203 18.153 23.4811C17.9907 23.5419 17.8177 23.5705 17.6441 23.5653C17.4414 23.5598 17.2432 23.5045 17.0678 23.4045C16.8924 23.3044 16.7452 23.1629 16.6397 22.9926L8.1928 12.6348L3.30144 17.4335V22.2718C3.30144 22.4365 3.26844 22.5995 3.20434 22.7517C3.14023 22.9038 3.04628 23.0421 2.92783 23.1585C2.80938 23.2749 2.66876 23.3673 2.514 23.4303C2.35925 23.4933 2.19338 23.5258 2.02587 23.5258C1.85835 23.5258 1.69248 23.4933 1.53773 23.4303C1.38297 23.3673 1.24235 23.2749 1.1239 23.1585C1.00545 23.0421 0.911497 22.9038 0.847394 22.7517C0.78329 22.5995 0.75029 22.4365 0.75029 22.2718V2.26707H0.740251Z" fill="#283645"/>
</svg>
