<svg width="22" height="41" viewBox="0 0 22 41" fill="none" xmlns="http://www.w3.org/2000/svg">
<path opacity="0.3" d="M19.9609 20.4965L0.274809 39.5856C0.19516 39.6621 0.131931 39.7532 0.0887779 39.8535C0.0456247 39.9539 0.0234055 40.0616 0.0234055 40.1704C0.0234055 40.2791 0.0456247 40.3868 0.0887779 40.4872C0.131931 40.5876 0.19516 40.6786 0.274809 40.7551C0.354491 40.8327 0.449175 40.8943 0.553429 40.9363C0.657683 40.9784 0.769458 41 0.882342 41C0.995226 41 1.107 40.9784 1.21125 40.9363C1.31551 40.8943 1.41019 40.8327 1.48987 40.7551L21.7477 21.0912C21.8277 21.0138 21.8911 20.9219 21.9344 20.8207C21.9777 20.7195 22 20.611 22 20.5015C22 20.3919 21.9777 20.2834 21.9344 20.1822C21.8911 20.081 21.8277 19.9891 21.7477 19.9117L1.48987 0.237876C1.32528 0.0842936 1.10554 -0.00102426 0.877235 7.46231e-06C0.708774 0.00154086 0.544509 0.0511971 0.404938 0.14278C0.265368 0.234363 0.156674 0.363813 0.0924197 0.514982C0.0281659 0.66615 0.0111984 0.832339 0.0436344 0.992809C0.0760703 1.15328 0.156472 1.30093 0.274809 1.41732L19.9609 20.4965Z" fill="#283645"/>
</svg>
