<svg width="22" height="41" viewBox="0 0 22 41" fill="none" xmlns="http://www.w3.org/2000/svg">
<path opacity="0.3" d="M2.03912 20.5035L21.7252 1.4144C21.8048 1.3379 21.8681 1.24683 21.9112 1.14646C21.9544 1.04608 21.9766 0.938398 21.9766 0.829635C21.9766 0.720871 21.9544 0.613187 21.9112 0.512814C21.8681 0.41244 21.8048 0.321369 21.7252 0.24487C21.6455 0.167255 21.5508 0.105671 21.4466 0.0636507C21.3423 0.0216304 21.2305 0 21.1177 0C21.0048 0 20.893 0.0216304 20.7887 0.0636507C20.6845 0.105671 20.5898 0.167255 20.5101 0.24487L0.252266 19.9088C0.172306 19.9862 0.108863 20.0781 0.0655731 20.1793C0.0222837 20.2805 0 20.389 0 20.4985C0 20.6081 0.0222837 20.7166 0.0655731 20.8178C0.108863 20.919 0.172306 21.0109 0.252266 21.0883L20.5101 40.7621C20.6747 40.9157 20.8945 41.001 21.1228 41C21.2912 40.9985 21.4555 40.9488 21.5951 40.8572C21.7346 40.7656 21.8433 40.6362 21.9076 40.485C21.9718 40.3339 21.9888 40.1677 21.9564 40.0072C21.9239 39.8467 21.8435 39.6991 21.7252 39.5827L2.03912 20.5035Z" fill="#283645"/>
</svg>
