<svg width="3" height="24" viewBox="0 0 3 24" fill="none" xmlns="http://www.w3.org/2000/svg">
<path d="M0.0185717 2.26707C0.00281869 2.09238 0.0242238 1.91637 0.0814225 1.75025C0.138621 1.58413 0.230361 1.43152 0.35081 1.30215C0.471259 1.17278 0.617779 1.06946 0.781049 0.998783C0.944319 0.928102 1.12077 0.891602 1.29917 0.891602C1.47757 0.891602 1.65401 0.928102 1.81728 0.998783C1.98055 1.06946 2.12707 1.17278 2.24752 1.30215C2.36797 1.43152 2.45971 1.58413 2.51691 1.75025C2.57411 1.91637 2.59551 2.09238 2.57976 2.26707V22.2915C2.59551 22.4662 2.57411 22.6422 2.51691 22.8084C2.45971 22.9745 2.36797 23.1271 2.24752 23.2565C2.12707 23.3858 1.98055 23.4891 1.81728 23.5598C1.65401 23.6305 1.47757 23.667 1.29917 23.667C1.12077 23.667 0.944319 23.6305 0.781049 23.5598C0.617779 23.4891 0.471259 23.3858 0.35081 23.2565C0.230361 23.1271 0.138621 22.9745 0.0814225 22.8084C0.0242238 22.6422 0.00281869 22.4662 0.0185717 22.2915V2.26707Z" fill="#283645"/>
</svg>
